Normalized EMG Linear Envelopes
nRows=111
nColumns=4

endheader
time	 med_gas_r	  soleus_r	 tib_ant_r	
3.07762	  0.035941	  0.024437	  0.010172	
3.14919	  0.035656	  0.024192	  0.010437	
3.22077	  0.035858	  0.024300	  0.010395	
3.29234	  0.036782	  0.024600	  0.010386	
3.36391	  0.038468	  0.024580	  0.010060	
3.43548	  0.039771	  0.024884	  0.009613	
3.50706	  0.039740	  0.025152	  0.009601	
3.57863	  0.038682	  0.025138	  0.009774	
3.6502	  0.038170	  0.024857	  0.010085	
3.72177	  0.038767	  0.024990	  0.009928	
3.79335	  0.039716	  0.025744	  0.009352	
3.86492	  0.040647	  0.026455	  0.008820	
3.93649	  0.041989	  0.027201	  0.008151	
4.00806	  0.043188	  0.027823	  0.007608	
4.07964	  0.044116	  0.028086	  0.007669	
4.15121	  0.044446	  0.027563	  0.008041	
4.22278	  0.044299	  0.027566	  0.008079	
4.29435	  0.044057	  0.028829	  0.008177	
4.36593	  0.044200	  0.030074	  0.008650	
4.4375	  0.044645	  0.030755	  0.008963	
4.50907	  0.044857	  0.030091	  0.008290	
4.58065	  0.044936	  0.029025	  0.007150	
4.65222	  0.044895	  0.028029	  0.006277	
4.72379	  0.044773	  0.028258	  0.006222	
4.79536	  0.044761	  0.029311	  0.007087	
4.86694	  0.044859	  0.029846	  0.008364	
4.93851	  0.044957	  0.030420	  0.009672	
5.01008	  0.044708	  0.030223	  0.010396	
5.08165	  0.044001	  0.029103	  0.010686	
5.15323	  0.043073	  0.026681	  0.010532	
5.2248	  0.042159	  0.023657	  0.009919	
5.29637	  0.041789	  0.021560	  0.009432	
5.36794	  0.042326	  0.024835	  0.011126	
5.43952	  0.045289	  0.041422	  0.017726	
5.51109	  0.051843	  0.078869	  0.032168	
5.58266	  0.061124	  0.135042	  0.053332	
5.65423	  0.069643	  0.185188	  0.072847	
5.72581	  0.072523	  0.206183	  0.083414	
5.79738	  0.073451	  0.213334	  0.092364	
5.86895	  0.077624	  0.234778	  0.107073	
5.94052	  0.085529	  0.271695	  0.125315	
6.0121	  0.092717	  0.305135	  0.135558	
6.08367	  0.101121	  0.337625	  0.135601	
6.15524	  0.111013	  0.366145	  0.134036	
6.22681	  0.118450	  0.364931	  0.135465	
6.29839	  0.120917	  0.338834	  0.138744	
6.36996	  0.130655	  0.332179	  0.143958	
6.44153	  0.149629	  0.357844	  0.149280	
6.5131	  0.171729	  0.386497	  0.153486	
6.58468	  0.201770	  0.410786	  0.161571	
6.65625	  0.243677	  0.446159	  0.177357	
6.72782	  0.286119	  0.488845	  0.194201	
6.7994	  0.312562	  0.506696	  0.199370	
6.87097	  0.314718	  0.504606	  0.194535	
6.94254	  0.307703	  0.495542	  0.187295	
7.01411	  0.292787	  0.471927	  0.176536	
7.08569	  0.272376	  0.464995	  0.161893	
7.15726	  0.284906	  0.497580	  0.158478	
7.22883	  0.335130	  0.529146	  0.167175	
7.3004	  0.405826	  0.554340	  0.176998	
7.37198	  0.468527	  0.586044	  0.187115	
7.44355	  0.496139	  0.620301	  0.203220	
7.51512	  0.511935	  0.641332	  0.216844	
7.58669	  0.534346	  0.652653	  0.222785	
7.65827	  0.551421	  0.665119	  0.219568	
7.72984	  0.564228	  0.684761	  0.209682	
7.80141	  0.575180	  0.698775	  0.200104	
7.87298	  0.574659	  0.699552	  0.191472	
7.94456	  0.550993	  0.691615	  0.186507	
8.01613	  0.528942	  0.674578	  0.189121	
8.0877	  0.530693	  0.644418	  0.192856	
8.15927	  0.549407	  0.620235	  0.191540	
8.23085	  0.592413	  0.605854	  0.193864	
8.30242	  0.654300	  0.625824	  0.198137	
8.37399	  0.700228	  0.674307	  0.196482	
8.44556	  0.688727	  0.737794	  0.189217	
8.51714	  0.641939	  0.781685	  0.181023	
8.58871	  0.625053	  0.809688	  0.181255	
8.66028	  0.661890	  0.835823	  0.191348	
8.73185	  0.711199	  0.863633	  0.206072	
8.80343	  0.765659	  0.901372	  0.225627	
8.875	  0.824196	  0.939668	  0.240467	
8.94657	  0.845419	  0.947087	  0.251630	
9.01815	  0.834568	  0.923072	  0.265718	
9.08972	  0.809711	  0.883993	  0.265008	
9.16129	  0.780603	  0.875731	  0.248859	
9.23286	  0.772833	  0.898919	  0.232285	
9.30444	  0.790258	  0.915781	  0.224194	
9.37601	  0.815752	  0.922699	  0.225124	
9.44758	  0.836321	  0.933270	  0.223779	
9.51915	  0.834237	  0.936073	  0.216949	
9.59073	  0.825148	  0.893317	  0.212068	
9.6623	  0.837022	  0.824947	  0.205217	
9.73387	  0.836599	  0.781570	  0.198145	
9.80544	  0.787154	  0.777049	  0.195657	
9.87702	  0.720320	  0.830760	  0.200160	
9.94859	  0.689788	  0.914282	  0.206171	
10.0202	  0.720477	  0.992883	  0.210369	
10.0917	  0.751517	  0.961556	  0.212256	
10.1633	  0.745437	  0.827134	  0.210177	
10.2349	  0.727365	  0.692802	  0.205738	
10.3065	  0.703110	  0.606027	  0.202818	
10.378	  0.651385	  0.566110	  0.199924	
10.4496	  0.604725	  0.578429	  0.200697	
10.5212	  0.610693	  0.633713	  0.206840	
10.5927	  0.644403	  0.690516	  0.211716	
10.6643	  0.653432	  0.712841	  0.208747	
10.7359	  0.590479	  0.660178	  0.193207	
10.8075	  0.475495	  0.541965	  0.169767	
10.879	  0.353677	  0.403304	  0.146496	
10.9506	  0.261423	  0.289722	  0.123578	
